<svg id="visual" viewBox="0 0 900 600" width="900" height="600" xmlns="http://www.w3.org/2000/svg" xmlns:xlink="http://www.w3.org/1999/xlink" version="1.1"><path d="M0 156L21.5 161.7C43 167.3 86 178.7 128.8 171.7C171.7 164.7 214.3 139.3 257.2 143.8C300 148.3 343 182.7 385.8 194.7C428.7 206.7 471.3 196.3 514.2 180C557 163.7 600 141.3 642.8 122.7C685.7 104 728.3 89 771.2 84.3C814 79.7 857 85.3 878.5 88.2L900 91L900 0L878.5 0C857 0 814 0 771.2 0C728.3 0 685.7 0 642.8 0C600 0 557 0 514.2 0C471.3 0 428.7 0 385.8 0C343 0 300 0 257.2 0C214.3 0 171.7 0 128.8 0C86 0 43 0 21.5 0L0 0Z" fill="#17bebb" stroke-linecap="round" stroke-linejoin="miter"></path></svg>