<svg id="visual" viewBox="0 0 900 600" width="900" height="600" xmlns="http://www.w3.org/2000/svg" xmlns:xlink="http://www.w3.org/1999/xlink" version="1.1"><path d="M0 65L16.7 66.5C33.3 68 66.7 71 100 72.3C133.3 73.7 166.7 73.3 200 70.3C233.3 67.3 266.7 61.7 300 60C333.3 58.3 366.7 60.7 400 60C433.3 59.3 466.7 55.7 500 53C533.3 50.3 566.7 48.7 600 47.3C633.3 46 666.7 45 700 46C733.3 47 766.7 50 800 50.5C833.3 51 866.7 49 883.3 48L900 47L900 0L883.3 0C866.7 0 833.3 0 800 0C766.7 0 733.3 0 700 0C666.7 0 633.3 0 600 0C566.7 0 533.3 0 500 0C466.7 0 433.3 0 400 0C366.7 0 333.3 0 300 0C266.7 0 233.3 0 200 0C166.7 0 133.3 0 100 0C66.7 0 33.3 0 16.7 0L0 0Z" fill="#17bebb" stroke-linecap="round" stroke-linejoin="miter"></path></svg>