<svg id="visual" viewBox="0 0 900 600" width="900" height="600" xmlns="http://www.w3.org/2000/svg" xmlns:xlink="http://www.w3.org/1999/xlink" version="1.1"><g transform="translate(92.1428111468631 -143.09619653400227)"><path d="M108.9 -66.6C217.7 -99.4 435.4 -198.8 560.5 -180.9C685.5 -162.9 717.9 -27.5 677.9 81.9C638 191.3 525.7 274.8 439.2 388.1C352.7 501.4 292 644.6 200.9 660.3C109.9 676.1 -11.6 564.5 -122.8 496.2C-234 427.9 -335 402.9 -453.9 347.7C-572.8 292.5 -709.6 207.1 -796.1 71.4C-882.6 -64.3 -918.8 -250.2 -814.9 -328.3C-711 -406.3 -466.9 -376.5 -307.7 -320.6C-148.5 -264.7 -74.2 -182.9 -37.1 -125.1C0 -67.3 0 -33.7 108.9 -66.6" fill="#17bebb"></path></g></svg>